<svg xmlns="http://www.w3.org/2000/svg" viewBox="0 0 92.6 99.19">
    <defs>
        <style>
            .cls-1 {
                fill: none;
                stroke: #ffffff;
                stroke-miterlimit: 10;
                stroke-width: 6px;
            }

            .cls-2 {
                fill: #ffffff;
            }
        </style>
    </defs>
    <g id="Layer_2" data-name="Layer 2">
        <g id="Layer_1-2" data-name="Layer 1">
            <path class="cls-1"
                d="M78.6,18.25,57.3,6a22,22,0,0,0-22,0L14,18.25a22,22,0,0,0-11,19V61.89A22,22,0,0,0,14,81l21.3,12.3a22,22,0,0,0,22,0L78.6,81a22,22,0,0,0,11-19.06V37.3A22,22,0,0,0,78.6,18.25Z" />
            <path class="cls-2"
                d="M42,96V84.75c-6.43-.11-13.09-2.11-17-4.88l2.67-7.44a29.5,29.5,0,0,0,16,4.77c7.88,0,13.21-4.55,13.21-10.87,0-6.11-4.33-9.88-12.55-13.21C33,48.68,26.05,43.57,26.05,33.92c0-9.22,6.55-16.21,16.76-17.87V4.84h6.88V15.6a29.66,29.66,0,0,1,14.43,3.89l-2.77,7.32a26.88,26.88,0,0,0-14-3.77c-8.55,0-11.76,5.11-11.76,9.54,0,5.78,4.1,8.66,13.76,12.66,11.43,4.66,17.2,10.43,17.2,20.31,0,8.77-6.1,17-17.53,18.87V96Z" />
        </g>
    </g>
</svg>