<svg xmlns="http://www.w3.org/2000/svg" xmlns:xlink="http://www.w3.org/1999/xlink" width="75" height="57"
    viewBox="0 0 75 57">
    <defs>
        <clipPath id="a">
            <rect width="75" height="57" />
        </clipPath>
        <style>
            .cls-1 {
                fill: #707070;
            }
        </style>
    </defs>
    <g clip-path="url(#a)">
        <path class="cls-1"
            d="M2.375,52.4,36,18.782l-1.532-1.533a2.133,2.133,0,0,1-.567-1.991C24.959,8.018,15.681,3.9,8.776,3.87,15.882-.314,27.627,2.326,38.39,10.3L39,9.683a2.144,2.144,0,0,1,3.029,0l1.532,1.531L46.881,7.9A1.661,1.661,0,0,1,48.1,7.428c2.623,0,6.691,4.612,4.811,6.474L49.58,17.227l1.537,1.537a2.149,2.149,0,0,1,0,3.027l-.617.616c7.974,10.759,10.615,22.5,6.43,29.6-.029-6.9-4.151-16.179-11.39-25.113a2.14,2.14,0,0,1-1.99-.566l-1.538-1.536L8.379,58.421a1.642,1.642,0,0,1-1.212.48c-2.606,0-6.655-4.626-4.792-6.5"
            transform="translate(7.099 -1.901)" />
    </g>
</svg>