<svg xmlns="http://www.w3.org/2000/svg" xmlns:xlink="http://www.w3.org/1999/xlink" width="81" height="61"
    viewBox="0 0 81 61">
    <defs>
        <clipPath id="a">
            <rect width="81" height="61" transform="translate(15.015 119)" />
        </clipPath>
        <style>
            .cls-1 {
                fill: #707070;
            }
        </style>
    </defs>
    <g transform="translate(-15.015 -119)" clip-path="url(#a)">
        <path class="cls-1"
            d="M130.724,64.867V53.617l-6.9-1.151a21.485,21.485,0,0,0-2.173-5.242l4.091-5.625-7.926-8.054-5.753,3.963a26.7,26.7,0,0,0-5.241-2.173l-1.151-6.776H94.416l-1.151,6.9a23.812,23.812,0,0,0-5.241,2.173L82.4,33.673,74.345,41.6l4.091,5.625a24.871,24.871,0,0,0-2.173,5.369l-6.9,1.023v11.25l6.9,1.151a23.8,23.8,0,0,0,2.173,5.242l-4.091,5.753,7.926,7.926,5.753-4.091a24.865,24.865,0,0,0,5.369,2.173L94.544,89.8h11.25l1.151-6.9a26.692,26.692,0,0,0,5.242-2.173l5.753,4.091,7.926-7.926-4.091-5.753a23.817,23.817,0,0,0,2.173-5.242ZM100.041,71A11.762,11.762,0,1,1,111.8,59.242,11.731,11.731,0,0,1,100.041,71Z"
            transform="translate(-44.754 90.44)" />
    </g>
</svg>